<svg viewBox="0 0 32 32" xmlns="http://www.w3.org/2000/svg"><path d="m16 29c-7.18 0-13-5.82-13-13s5.82-13 13-13 13 5.82 13 13-5.82 13-13 13zm5.961-16.791c.244-.244.244-.641 0-.885l-1.328-1.327c-.244-.244-.641-.244-.885 0l-3.761 3.761-3.761-3.761c-.244-.244-.641-.244-.885 0l-1.328 1.327c-.244.244-.244.641 0 .885l3.762 3.762-3.762 3.76c-.244.244-.244.641 0 .885l1.328 1.328c.244.244.641.244.885 0l3.761-3.762 3.761 3.762c.244.244.641.244.885 0l1.328-1.328c.244-.244.244-.641 0-.885l-3.762-3.76z"/></svg>