<?xml version="1.0" encoding="utf-8"?>
<svg viewBox="0 0 64 64" width="64" height="64" xmlns="http://www.w3.org/2000/svg">
  <g transform="matrix(1, 0, 0, 1, 0.999893, 1)">
    <g transform="matrix(1, 0, 0, -1, 60, 29)">
      <path d="M 0 0 C 0 -16.016 -12.984 -29 -29 -29 C -45.016 -29 -58 -16.016 -58 0 C -58 16.016 -45.016 29 -29 29 C -12.984 29 0 16.016 0 0" style="fill: rgb(233, 234, 235); fill-opacity: 1;"/>
    </g>
    <g transform="matrix(1, 0, 0, -1, -329.3638, 83.084991)">
      <path d="M 363.364 24.085 L 357.364 24.085 L 357.364 39.085 L 363.364 39.085 Z" style="fill: rgb(255, 255, 255); fill-opacity: 1;"/>
      <path d="M 329.364 39.085 L 391.364 39.085 L 391.364 75.085 L 329.364 75.085 Z" style="fill: rgb(255, 255, 255); fill-opacity: 1;"/>
    </g>
    <g transform="matrix(1, 0, 0, -1, 50, 8)">
      <path d="M 0 0 L 12 0 L 12 -36 L -50 -36 L -50 0 L -36 0" style="fill: none; stroke: rgb(42, 80, 130); stroke-opacity: 1; stroke-miterlimit: 0; stroke-linecap: butt; stroke-linejoin: miter; stroke-width: 2px; stroke-dashoffset: 0px;"/>
    </g>
    <g transform="matrix(1, 0, 0, -1, 33, 8)">
      <path d="M 0 0 L 15 0" style="fill: none; stroke: rgb(42, 80, 130); stroke-opacity: 1; stroke-miterlimit: 0; stroke-linecap: butt; stroke-linejoin: miter; stroke-width: 2px; stroke-dashoffset: 0px;"/>
    </g>
    <g transform="matrix(1, 0, 0, -1, 15.999998, 8)">
      <path d="M 0 0 L 15 0" style="fill: none; stroke: rgb(42, 80, 130); stroke-opacity: 1; stroke-miterlimit: 0; stroke-linecap: butt; stroke-linejoin: miter; stroke-width: 2px; stroke-dashoffset: 0px;"/>
    </g>
    <g transform="matrix(1, 0, 0, -1, 27.999998, 59)">
      <path d="M 0 0 L 0 15" style="fill: none; stroke: rgb(42, 80, 130); stroke-opacity: 1; stroke-miterlimit: 0; stroke-linecap: butt; stroke-linejoin: miter; stroke-width: 2px; stroke-dashoffset: 0px;"/>
    </g>
    <g transform="matrix(1, 0, 0, -1, 34, 44)">
      <path d="M 0 0 L 0 -15" style="fill: none; stroke: rgb(42, 80, 130); stroke-opacity: 1; stroke-miterlimit: 0; stroke-linecap: butt; stroke-linejoin: miter; stroke-width: 2px; stroke-dashoffset: 0px;"/>
    </g>
    <g transform="matrix(1, 0, 0, -1, 10.999998, 11)">
      <path d="M 0 0 L 6 0" style="fill: none; stroke: rgb(42, 80, 130); stroke-opacity: 1; stroke-miterlimit: 0; stroke-linecap: butt; stroke-linejoin: miter; stroke-width: 2px; stroke-dashoffset: 0px;"/>
    </g>
    <g transform="matrix(1, 0, 0, -1, 13.999998, 11)">
      <path d="M 0 0 L 0 4 C 0 5.105 0.895 6 2 6 L 3 6" style="fill: none; stroke: rgb(42, 80, 130); stroke-opacity: 1; stroke-miterlimit: 0; stroke-linecap: butt; stroke-linejoin: miter; stroke-width: 2px; stroke-dashoffset: 0px;"/>
    </g>
    <g transform="matrix(1, 0, 0, -1, 27.999998, 11)">
      <path d="M 0 0 L 6 0" style="fill: none; stroke: rgb(42, 80, 130); stroke-opacity: 1; stroke-miterlimit: 0; stroke-linecap: butt; stroke-linejoin: miter; stroke-width: 2px; stroke-dashoffset: 0px;"/>
    </g>
    <g transform="matrix(1, 0, 0, -1, 31, 11)">
      <path d="M 0 0 L 0 4 C 0 5.105 0.895 6 2 6 L 3 6" style="fill: none; stroke: rgb(42, 80, 130); stroke-opacity: 1; stroke-miterlimit: 0; stroke-linecap: butt; stroke-linejoin: miter; stroke-width: 2px; stroke-dashoffset: 0px;"/>
    </g>
    <g transform="matrix(1, 0, 0, -1, 45, 11)">
      <path d="M 0 0 L 6 0" style="fill: none; stroke: rgb(42, 80, 130); stroke-opacity: 1; stroke-miterlimit: 0; stroke-linecap: butt; stroke-linejoin: miter; stroke-width: 2px; stroke-dashoffset: 0px;"/>
    </g>
    <g transform="matrix(1, 0, 0, -1, 48, 11)">
      <path d="M 0 0 L 0 4 C 0 5.105 0.895 6 2 6 L 3 6" style="fill: none; stroke: rgb(42, 80, 130); stroke-opacity: 1; stroke-miterlimit: 0; stroke-linecap: butt; stroke-linejoin: miter; stroke-width: 2px; stroke-dashoffset: 0px;"/>
    </g>
    <g transform="matrix(1, 0, 0, -1, 31, 16.001282)">
      <path d="M 0 0 L -11 -4.999 L -11 -17.999 L 0 -22.999 L 11 -17.999 L 11 -4.999 Z" style="fill: rgb(163, 212, 255); fill-opacity: 1;"/>
    </g>
    <g transform="matrix(1, 0, 0, -1, 31, 16.001282)">
      <path d="M 0 0 L -11 -4.999 L -11 -17.999 L 0 -22.999 L 11 -17.999 L 11 -4.999 L 0 0 Z" style="fill: none; stroke: rgb(42, 80, 130); stroke-opacity: 1; stroke-miterlimit: 0; stroke-linecap: round; stroke-linejoin: round; stroke-width: 2px; stroke-dashoffset: 0px;"/>
    </g>
    <g transform="matrix(1, 0, 0, -1, 19.999998, 21)">
      <path d="M 0 0 L 11 -5 L 22 0" style="fill: none; stroke: rgb(42, 80, 130); stroke-opacity: 1; stroke-miterlimit: 0; stroke-linecap: round; stroke-linejoin: round; stroke-width: 2px; stroke-dashoffset: 0px;"/>
    </g>
    <g transform="matrix(1, 0, 0, -1, 31, 26)">
      <path d="M 0 0 L 0 -13" style="fill: none; stroke: rgb(42, 80, 130); stroke-opacity: 1; stroke-miterlimit: 0; stroke-linecap: round; stroke-linejoin: round; stroke-width: 2px; stroke-dashoffset: 0px;"/>
    </g>
    <g transform="matrix(1, 0, 0, -1, 34, 58)">
      <path d="M 0 0 L -6 0 L -8 -2 L -8 -4 L 2 -4 L 2 -2 L 0 0 Z" style="fill: none; stroke: rgb(42, 80, 130); stroke-opacity: 1; stroke-miterlimit: 0; stroke-linecap: butt; stroke-linejoin: miter; stroke-width: 2px; stroke-dashoffset: 0px;"/>
    </g>
  </g>
</svg>