<?xml version="1.0" encoding="utf-8"?>
<svg viewBox="0 0 64 64" width="64" height="64" xmlns="http://www.w3.org/2000/svg">
  <g transform="matrix(1, 0, 0, 1, -2.229292, -3.540772)">
    <g transform="matrix(1, 0, 0, -1, 64, 42.271)">
      <path d="M 0 0 C 0 -12.001 -9.729 -21.729 -21.729 -21.729 C -33.73 -21.729 -43.459 -12.001 -43.459 0 C -43.459 12.001 -33.73 21.729 -21.729 21.729 C -9.729 21.729 0 12.001 0 0" style="fill: rgb(233, 234, 235); fill-opacity: 1;"/>
    </g>
    <g transform="matrix(1, 0, 0, -1, 25.671602, 24.906221)">
      <path d="M 0 0 L -10.477 0.995 C -10.95 1.041 -11.558 0.814 -11.912 0.344 C -11.915 0.34 -11.92 0.338 -11.923 0.334 L -20.734 -12.052 C -21.196 -12.51 -21.358 -13.216 -21.068 -13.84 L -14.827 -27.579 C -14.505 -28.284 -13.971 -28.675 -13.357 -28.741 C -13.348 -28.742 -13.342 -28.747 -13.334 -28.748 L 2.001 -30.205 C 2.544 -30.256 3.139 -30.009 3.481 -29.528 L 11.182 -18.702 L 10.328 -6.211 Z" style="fill: rgb(255, 255, 255); fill-opacity: 1;"/>
    </g>
    <g transform="matrix(1, 0, 0, -1, 25.671602, 24.906221)">
      <path d="M 0 0 L -10.477 0.995 C -10.95 1.041 -11.558 0.814 -11.912 0.344 C -11.915 0.34 -11.92 0.338 -11.923 0.334 L -20.734 -12.052 C -21.196 -12.51 -21.358 -13.216 -21.068 -13.84 L -14.827 -27.579 C -14.505 -28.284 -13.971 -28.675 -13.357 -28.741 C -13.348 -28.742 -13.342 -28.747 -13.334 -28.748 L 2.001 -30.205 C 2.544 -30.256 3.139 -30.009 3.481 -29.528 L 11.182 -18.702" style="fill: none; stroke: rgb(42, 80, 130); stroke-opacity: 1; stroke-miterlimit: 0; stroke-linecap: round; stroke-linejoin: miter; stroke-width: 2px; stroke-dashoffset: 0px;"/>
    </g>
    <g transform="matrix(1, 0, 0, -1, 58.329193, 18.686525)">
      <path d="M 0 0 L -12.558 8.92 C -12.949 9.197 -13.596 9.302 -14.134 9.071 C -14.136 9.07 -27.956 2.739 -27.956 2.739 C -28.588 2.575 -29.083 2.043 -29.143 1.355 L -30.488 -13.712 C -30.542 -14.383 -30.39 -15.065 -29.886 -15.422 L -17.326 -24.341 C -16.844 -24.686 -16.476 -24.896 -16.028 -24.691 L -1.843 -18.205 C -1.079 -17.856 -0.77 -17.507 -0.705 -16.781 L 0.664 -1.437 C 0.705 -0.978 0.442 -0.313 0 0" style="fill: rgb(163, 212, 255); fill-opacity: 1;"/>
    </g>
    <g transform="matrix(1, 0, 0, -1, 58.329193, 18.686525)">
      <path d="M 0 0 L -12.558 8.92 C -12.949 9.197 -13.596 9.302 -14.134 9.071 C -14.136 9.07 -27.956 2.739 -27.956 2.739 C -28.588 2.575 -29.083 2.043 -29.143 1.355 L -30.488 -13.712 C -30.542 -14.383 -30.39 -15.065 -29.886 -15.422 L -17.326 -24.341 C -16.844 -24.686 -16.476 -24.896 -16.028 -24.691 L -1.843 -18.205 C -1.079 -17.856 -0.77 -17.507 -0.705 -16.781 L 0.664 -1.437 C 0.705 -0.978 0.442 -0.313 0 0 Z" style="fill: none; stroke: rgb(42, 80, 130); stroke-opacity: 1; stroke-miterlimit: 0; stroke-linecap: butt; stroke-linejoin: miter; stroke-width: 2px; stroke-dashoffset: 0px;"/>
    </g>
    <g transform="matrix(1, 0, 0, -1, 33.603699, 10.724491)">
      <path d="M 0 0 L -1.938 2.932 C -2.202 3.332 -2.768 3.663 -3.353 3.642 C -3.355 3.642 -18.529 2.724 -18.529 2.724 C -19.177 2.799 -19.83 2.482 -20.135 1.862 L -26.826 -11.705 C -27.119 -12.311 -27.223 -13.002 -26.882 -13.516 L -25.692 -15.317" style="fill: none; stroke: rgb(42, 80, 130); stroke-opacity: 1; stroke-miterlimit: 0; stroke-linecap: round; stroke-linejoin: miter; stroke-width: 2px; stroke-dashoffset: 0px;"/>
    </g>
    <g transform="matrix(1, 0, 0, -1, 44.30249, 12.774202)">
      <path d="M 0 0 L -1.45 -13.498 L -13.264 -18.603" style="fill: none; stroke: rgb(42, 80, 130); stroke-opacity: 1; stroke-miterlimit: 0; stroke-linecap: round; stroke-linejoin: miter; stroke-width: 2px; stroke-dashoffset: 0px;"/>
    </g>
    <g transform="matrix(1, 0, 0, -1, 42.852692, 26.272219)">
      <path d="M 0 0 L 11.173 -7.836" style="fill: none; stroke: rgb(42, 80, 130); stroke-opacity: 1; stroke-miterlimit: 0; stroke-linecap: round; stroke-linejoin: miter; stroke-width: 2px; stroke-dashoffset: 0px;"/>
    </g>
    <g transform="matrix(1, 0, 0, -1, 22.455797, 39.519901)">
      <path d="M 0 0 L 7.199 0" style="fill: none; stroke: rgb(42, 80, 130); stroke-opacity: 1; stroke-miterlimit: 0; stroke-linecap: round; stroke-linejoin: miter; stroke-width: 2px; stroke-dashoffset: 0px;"/>
    </g>
    <g transform="matrix(1, 0, 0, -1, 16.005709, 27.394716)">
      <path d="M 0 0 L 6.45 -12.076 L -2.681 -22.85" style="fill: none; stroke: rgb(42, 80, 130); stroke-opacity: 1; stroke-miterlimit: 0; stroke-linecap: round; stroke-linejoin: miter; stroke-width: 2px; stroke-dashoffset: 0px;"/>
    </g>
    <g transform="matrix(1, 0, 0, -1, 53, 50.117619)">
      <path d="M 0 0 L -2 -2" style="fill: none; stroke: rgb(188, 192, 196); stroke-opacity: 1; stroke-miterlimit: 0; stroke-linecap: butt; stroke-linejoin: miter; stroke-width: 2px; stroke-dashoffset: 0px;"/>
    </g>
    <g transform="matrix(1, 0, 0, -1, 58, 45.117619)">
      <path d="M 0 0 L -2 -2" style="fill: none; stroke: rgb(188, 192, 196); stroke-opacity: 1; stroke-miterlimit: 0; stroke-linecap: butt; stroke-linejoin: miter; stroke-width: 2px; stroke-dashoffset: 0px;"/>
    </g>
    <g transform="matrix(1, 0, 0, -1, 56, 50.117619)">
      <path d="M 0 0 L 2 -2" style="fill: none; stroke: rgb(188, 192, 196); stroke-opacity: 1; stroke-miterlimit: 0; stroke-linecap: butt; stroke-linejoin: miter; stroke-width: 2px; stroke-dashoffset: 0px;"/>
    </g>
    <g transform="matrix(1, 0, 0, -1, 51, 45.117619)">
      <path d="M 0 0 L 2 -2" style="fill: none; stroke: rgb(188, 192, 196); stroke-opacity: 1; stroke-miterlimit: 0; stroke-linecap: butt; stroke-linejoin: miter; stroke-width: 2px; stroke-dashoffset: 0px;"/>
    </g>
    <g transform="matrix(1, 0, 0, -1, 43, 53.117619)">
      <path d="M 0 0 L 0 -6" style="fill: none; stroke: rgb(188, 192, 196); stroke-opacity: 1; stroke-miterlimit: 0; stroke-linecap: butt; stroke-linejoin: miter; stroke-width: 2px; stroke-dashoffset: 0px;"/>
    </g>
    <g transform="matrix(1, 0, 0, -1, 40, 56.117619)">
      <path d="M 0 0 L 6 0" style="fill: none; stroke: rgb(188, 192, 196); stroke-opacity: 1; stroke-miterlimit: 0; stroke-linecap: butt; stroke-linejoin: miter; stroke-width: 2px; stroke-dashoffset: 0px;"/>
    </g>
  </g>
</svg>