<?xml version="1.0" encoding="utf-8"?>
<svg viewBox="0 0 64 64" width="64" height="64" xmlns="http://www.w3.org/2000/svg">
  <g transform="matrix(1, 0, 0, 1, 2.999853, 1)">
    <g transform="matrix(1, 0, 0, -1, 58.000294, 50)">
      <path d="M 0 0 C 0 -7.18 -5.82 -13 -13 -13 C -20.18 -13 -26 -7.18 -26 0 C -26 7.18 -20.18 13 -13 13 C -5.82 13 0 7.18 0 0" style="fill: rgb(233, 234, 235); fill-opacity: 1;"/>
    </g>
    <g transform="matrix(1, 0, 0, -1, 27.000294, 42)">
      <path d="M 0 0 L -8 -7 L -19 -1.79 L -19 -11 L 0 -20 L 19 -11 L 19 -1.79 L 8 -7 Z" style="fill: rgb(163, 212, 255); fill-opacity: 1;"/>
    </g>
    <g transform="matrix(1, 0, 0, -1, 0.000294, 40)">
      <path d="M 0 0 L 19 -9 L 27 -2 L 27 -1 L 8 8 L 0 1 Z" style="fill: rgb(255, 255, 255); fill-opacity: 1;"/>
    </g>
    <g transform="matrix(1, 0, 0, -1, 0.000294, 40)">
      <path d="M 0 0 L 19 -9 L 27 -2 L 27 -1 L 8 8 L 0 1 L 0 0 Z" style="fill: none; stroke: rgb(42, 80, 130); stroke-opacity: 1; stroke-miterlimit: 0; stroke-linecap: round; stroke-linejoin: round; stroke-width: 2px; stroke-dashoffset: 0px;"/>
    </g>
    <g transform="matrix(1, 0, 0, -1, 8.000295, 43.78952)">
      <path d="M 0 0 L 0 -9.21 L 19 -18.21 L 38 -9.21 L 38 0" style="fill: none; stroke: rgb(42, 80, 130); stroke-opacity: 1; stroke-miterlimit: 0; stroke-linecap: round; stroke-linejoin: round; stroke-width: 2px; stroke-dashoffset: 0px;"/>
    </g>
    <g transform="matrix(1, 0, 0, -1, 54.000294, 40)">
      <path d="M 0 0 L -19 -9 L -27 -2 L -27 -1 L -8 8 L 0 1 Z" style="fill: rgb(255, 255, 255); fill-opacity: 1;"/>
    </g>
    <g transform="matrix(1, 0, 0, -1, 54.000294, 40)">
      <path d="M 0 0 L -19 -9 L -27 -2 L -27 -1 L -8 8 L 0 1 L 0 0 Z" style="fill: none; stroke: rgb(42, 80, 130); stroke-opacity: 1; stroke-miterlimit: 0; stroke-linecap: round; stroke-linejoin: round; stroke-width: 2px; stroke-dashoffset: 0px;"/>
    </g>
    <g transform="matrix(1, 0, 0, -1, 14.939, 28.713226)">
      <path d="M 0 0 L -6.939 -3.287 L -14.939 3.713 L -14.939 4.713 L -6.264 8.822" style="fill: none; stroke: rgb(42, 80, 130); stroke-opacity: 1; stroke-miterlimit: 0; stroke-linecap: round; stroke-linejoin: round; stroke-width: 2px; stroke-dashoffset: 0px;"/>
    </g>
    <g transform="matrix(1, 0, 0, -1, 38.807194, 28.592834)">
      <path d="M 0 0 L 7.193 -3.407 L 15.193 3.593 L 15.193 4.593 L 5.693 9.093" style="fill: none; stroke: rgb(42, 80, 130); stroke-opacity: 1; stroke-miterlimit: 0; stroke-linecap: round; stroke-linejoin: round; stroke-width: 2px; stroke-dashoffset: 0px;"/>
    </g>
    <g transform="matrix(1, 0, 0, -1, 27.000294, 42)">
      <path d="M 0 0 L 0 -20" style="fill: none; stroke: rgb(42, 80, 130); stroke-opacity: 1; stroke-miterlimit: 0; stroke-linecap: round; stroke-linejoin: round; stroke-width: 2px; stroke-dashoffset: 0px;"/>
    </g>
    <g transform="matrix(1, 0, 0, -1, 20.000294, 33)">
      <path d="M 0 0 C -1 5 -5 18 -20 22" style="fill: none; stroke: rgb(188, 192, 196); stroke-opacity: 1; stroke-miterlimit: 0; stroke-linecap: round; stroke-linejoin: miter; stroke-width: 2px; stroke-dashoffset: 0px;"/>
    </g>
    <g transform="matrix(1, 0, 0, -1, 36.425999, 24.310516)">
      <path d="M 0 0 C 2.118 4.461 5.89 9.258 12.574 11.311" style="fill: none; stroke: rgb(188, 192, 196); stroke-opacity: 1; stroke-miterlimit: 0; stroke-linecap: round; stroke-linejoin: miter; stroke-width: 2px; stroke-dashoffset: 0px;"/>
    </g>
    <g transform="matrix(1, 0, 0, -1, 34.000187, 32)">
      <path d="M 0 0 C 0.174 1 0.468 2.372 0.958 3.931" style="fill: none; stroke: rgb(188, 192, 196); stroke-opacity: 1; stroke-miterlimit: 0; stroke-linecap: round; stroke-linejoin: miter; stroke-width: 2px; stroke-dashoffset: 0px;"/>
    </g>
    <g transform="matrix(1, 0, 0, -1, 35.497288, 17.589722)">
      <path d="M 0 0 C 1.472 4.128 6.333 14.684 18.006 16.179" style="fill: none; stroke: rgb(42, 80, 130); stroke-opacity: 1; stroke-miterlimit: 0; stroke-linecap: round; stroke-linejoin: round; stroke-width: 2px; stroke-dashoffset: 0px;"/>
    </g>
    <g transform="matrix(1, 0, 0, -1, 18.660389, 9.499817)">
      <path d="M 0 0 C -0.82 1.237 -1.707 2.41 -2.66 3.5" style="fill: none; stroke: rgb(42, 80, 130); stroke-opacity: 1; stroke-miterlimit: 0; stroke-linecap: round; stroke-linejoin: round; stroke-width: 2px; stroke-dashoffset: 0px;"/>
    </g>
    <g transform="matrix(1, 0, 0, -1, 22.694294, 17.34552)">
      <path d="M 0 0 C -0.645 1.643 -1.382 3.251 -2.211 4.792" style="fill: none; stroke: rgb(42, 80, 130); stroke-opacity: 1; stroke-miterlimit: 0; stroke-linecap: round; stroke-linejoin: round; stroke-width: 2px; stroke-dashoffset: 0px;"/>
    </g>
    <g transform="matrix(1, 0, 0, -1, 26.000294, 35.833344)">
      <path d="M 0 0 C 0.199 4.459 -0.477 9.641 -2.001 14.71" style="fill: none; stroke: rgb(42, 80, 130); stroke-opacity: 1; stroke-miterlimit: 0; stroke-linecap: round; stroke-linejoin: round; stroke-width: 2px; stroke-dashoffset: 0px;"/>
    </g>
    <g transform="matrix(1, 0, 0, -1, 32.359989, 8.000244)">
      <path d="M 0 0 C 1.146 2.209 2.658 4.299 4.64 6" style="fill: none; stroke: rgb(188, 192, 196); stroke-opacity: 1; stroke-miterlimit: 0; stroke-linecap: round; stroke-linejoin: miter; stroke-width: 2px; stroke-dashoffset: 0px;"/>
    </g>
    <g transform="matrix(1, 0, 0, -1, 29.000401, 22)">
      <path d="M 0 0 C 0 2.289 0.392 6.215 1.767 10.243" style="fill: none; stroke: rgb(188, 192, 196); stroke-opacity: 1; stroke-miterlimit: 0; stroke-linecap: round; stroke-linejoin: miter; stroke-width: 2px; stroke-dashoffset: 0px;"/>
    </g>
    <g transform="matrix(1, 0, 0, -1, 5.000294, 5)">
      <path d="M 0 0 L -2 -2" style="fill: none; stroke: rgb(188, 192, 196); stroke-opacity: 1; stroke-miterlimit: 0; stroke-linecap: butt; stroke-linejoin: miter; stroke-width: 2px; stroke-dashoffset: 0px;"/>
    </g>
    <g transform="matrix(1, 0, 0, -1, 10.000295, 0)">
      <path d="M 0 0 L -2 -2" style="fill: none; stroke: rgb(188, 192, 196); stroke-opacity: 1; stroke-miterlimit: 0; stroke-linecap: butt; stroke-linejoin: miter; stroke-width: 2px; stroke-dashoffset: 0px;"/>
    </g>
    <g transform="matrix(1, 0, 0, -1, 8.000295, 5)">
      <path d="M 0 0 L 2 -2" style="fill: none; stroke: rgb(188, 192, 196); stroke-opacity: 1; stroke-miterlimit: 0; stroke-linecap: butt; stroke-linejoin: miter; stroke-width: 2px; stroke-dashoffset: 0px;"/>
    </g>
    <g transform="matrix(1, 0, 0, -1, 3.000294, 0)">
      <path d="M 0 0 L 2 -2" style="fill: none; stroke: rgb(188, 192, 196); stroke-opacity: 1; stroke-miterlimit: 0; stroke-linecap: butt; stroke-linejoin: miter; stroke-width: 2px; stroke-dashoffset: 0px;"/>
    </g>
    <g transform="matrix(1, 0, 0, -1, 55.000294, 6)">
      <path d="M 0 0 L 0 -2" style="fill: none; stroke: rgb(188, 192, 196); stroke-opacity: 1; stroke-miterlimit: 0; stroke-linecap: butt; stroke-linejoin: miter; stroke-width: 2px; stroke-dashoffset: 0px;"/>
    </g>
    <g transform="matrix(1, 0, 0, -1, 55.000294, 10)">
      <path d="M 0 0 L 0 -2" style="fill: none; stroke: rgb(188, 192, 196); stroke-opacity: 1; stroke-miterlimit: 0; stroke-linecap: butt; stroke-linejoin: miter; stroke-width: 2px; stroke-dashoffset: 0px;"/>
    </g>
    <g transform="matrix(1, 0, 0, -1, 54.000294, 9)">
      <path d="M 0 0 L -2 0" style="fill: none; stroke: rgb(188, 192, 196); stroke-opacity: 1; stroke-miterlimit: 0; stroke-linecap: butt; stroke-linejoin: miter; stroke-width: 2px; stroke-dashoffset: 0px;"/>
    </g>
    <g transform="matrix(1, 0, 0, -1, 58.000294, 9)">
      <path d="M 0 0 L -2 0" style="fill: none; stroke: rgb(188, 192, 196); stroke-opacity: 1; stroke-miterlimit: 0; stroke-linecap: butt; stroke-linejoin: miter; stroke-width: 2px; stroke-dashoffset: 0px;"/>
    </g>
    <g transform="matrix(1, 0, 0, -1, 26.000294, 1)">
      <path d="M 0 0 L 0 -2" style="fill: none; stroke: rgb(188, 192, 196); stroke-opacity: 1; stroke-miterlimit: 0; stroke-linecap: butt; stroke-linejoin: miter; stroke-width: 2px; stroke-dashoffset: 0px;"/>
    </g>
    <g transform="matrix(1, 0, 0, -1, 26.000294, 5)">
      <path d="M 0 0 L 0 -2" style="fill: none; stroke: rgb(188, 192, 196); stroke-opacity: 1; stroke-miterlimit: 0; stroke-linecap: butt; stroke-linejoin: miter; stroke-width: 2px; stroke-dashoffset: 0px;"/>
    </g>
    <g transform="matrix(1, 0, 0, -1, 25.000294, 4)">
      <path d="M 0 0 L -2 0" style="fill: none; stroke: rgb(188, 192, 196); stroke-opacity: 1; stroke-miterlimit: 0; stroke-linecap: butt; stroke-linejoin: miter; stroke-width: 2px; stroke-dashoffset: 0px;"/>
    </g>
    <g transform="matrix(1, 0, 0, -1, 29.000294, 4)">
      <path d="M 0 0 L -2 0" style="fill: none; stroke: rgb(188, 192, 196); stroke-opacity: 1; stroke-miterlimit: 0; stroke-linecap: butt; stroke-linejoin: miter; stroke-width: 2px; stroke-dashoffset: 0px;"/>
    </g>
  </g>
</svg>