<?xml version="1.0" encoding="utf-8"?>
<svg viewBox="0 0 64 64" width="64" height="64" xmlns="http://www.w3.org/2000/svg" xmlns:bx="https://boxy-svg.com">
  <defs>
    <clipPath id="clippath0" transform="">
      <path d="M 0 461.707 L 393.024 461.707 L 393.024 0 L 0 0 Z" style="fill: none; clip-rule: nonzero;"/>
    </clipPath>
  </defs>
  <g transform="matrix(1, 0, 0, 1, 2.938248, 1.5)">
    <g style="clip-path: url(#clippath0);" transform="matrix(1, 0, 0, -1, -113.3638, 392.084991)" bx:origin="0.569585 1.386364">
      <g transform="translate(161.3638 353.085)">
        <path d="M 0 0 C 0 -12.15 -9.85 -22 -22 -22 C -34.15 -22 -44 -12.15 -44 0 C -44 12.15 -34.15 22 -22 22 C -9.85 22 0 12.15 0 0" style="fill: rgb(233, 234, 235); fill-opacity: 1;"/>
      </g>
    </g>
    <g style="clip-path: url(#clippath0);" transform="matrix(1, 0, 0, -1, -113.3638, 392.084991)" bx:origin="0.701544 1">
      <g transform="translate(154.3638 362.085)">
        <path d="M 0 0 L -20 -6 L -40 0 L -40 24 L -20 30 L 0 24 Z" style="fill: rgb(163, 212, 255); fill-opacity: 1;"/>
      </g>
    </g>
    <g style="clip-path: url(#clippath0);" transform="matrix(1, 0, 0, -1, -113.3638, 392.084991)" bx:origin="0.701544 2">
      <g transform="translate(154.3638 386.085)">
        <path d="M 0 0 L -20 -6 L -40 0" style="fill: none; stroke: rgb(42, 80, 130); stroke-opacity: 1; stroke-miterlimit: 0; stroke-linecap: round; stroke-linejoin: round; stroke-width: 2px; stroke-dashoffset: 0px;"/>
      </g>
    </g>
    <g style="clip-path: url(#clippath0);" transform="matrix(1, 0, 0, -1, -113.3638, 392.084991)" bx:origin="0.701544 1">
      <g transform="translate(154.3638 362.085)">
        <path d="M 0 0 L -20 -6 L -40 0 L -40 24 L -20 30 L 0 24 L 0 0 Z" style="fill: none; stroke: rgb(42, 80, 130); stroke-opacity: 1; stroke-miterlimit: 0; stroke-linecap: round; stroke-linejoin: round; stroke-width: 2px; stroke-dashoffset: 0px;"/>
      </g>
    </g>
    <g style="clip-path: url(#clippath0);" transform="matrix(1, 0, 0, -1, -113.3638, 392.084991)" bx:origin="0 1.5">
      <g transform="translate(134.3638 380.085)">
        <path d="M 0 0 L 0 -24" style="fill: none; stroke: rgb(42, 80, 130); stroke-opacity: 1; stroke-miterlimit: 0; stroke-linecap: round; stroke-linejoin: round; stroke-width: 2px; stroke-dashoffset: 0px;"/>
      </g>
    </g>
    <g style="clip-path: url(#clippath0);" transform="matrix(1, 0, 0, -1, -113.3638, 392.084991)" bx:origin="0 3">
      <g transform="translate(163.3638 388.085)">
        <path d="M 0 0 L 0 -2" style="fill: none; stroke: rgb(188, 192, 196); stroke-opacity: 1; stroke-miterlimit: 0; stroke-linecap: butt; stroke-linejoin: miter; stroke-width: 2px; stroke-dashoffset: 0px;"/>
      </g>
    </g>
    <g style="clip-path: url(#clippath0);" transform="matrix(1, 0, 0, -1, -113.3638, 392.084991)" bx:origin="0 5">
      <g transform="translate(163.3638 384.085)">
        <path d="M 0 0 L 0 -2" style="fill: none; stroke: rgb(188, 192, 196); stroke-opacity: 1; stroke-miterlimit: 0; stroke-linecap: butt; stroke-linejoin: miter; stroke-width: 2px; stroke-dashoffset: 0px;"/>
      </g>
    </g>
    <g style="clip-path: url(#clippath0);" transform="matrix(1, 0, 0, -1, -113.3638, 392.084991)" bx:origin="-8.969124 0">
      <g transform="translate(162.3638 385.085)">
        <path d="M 0 0 L -2 0" style="fill: none; stroke: rgb(188, 192, 196); stroke-opacity: 1; stroke-miterlimit: 0; stroke-linecap: butt; stroke-linejoin: miter; stroke-width: 2px; stroke-dashoffset: 0px;"/>
      </g>
    </g>
    <g style="clip-path: url(#clippath0);" transform="matrix(1, 0, 0, -1, -113.3638, 392.084991)" bx:origin="-10.969124 0">
      <g transform="translate(166.3638 385.085)">
        <path d="M 0 0 L -2 0" style="fill: none; stroke: rgb(188, 192, 196); stroke-opacity: 1; stroke-miterlimit: 0; stroke-linecap: butt; stroke-linejoin: miter; stroke-width: 2px; stroke-dashoffset: 0px;"/>
      </g>
    </g>
    <g style="clip-path: url(#clippath0);" transform="matrix(1, 0, 0, -1, -113.3638, 392.084991)" bx:origin="9.030876 23.5">
      <g transform="translate(126.3638 347.085)">
        <path d="M 0 0 L -2 -2" style="fill: none; stroke: rgb(188, 192, 196); stroke-opacity: 1; stroke-miterlimit: 0; stroke-linecap: butt; stroke-linejoin: miter; stroke-width: 2px; stroke-dashoffset: 0px;"/>
      </g>
    </g>
    <g style="clip-path: url(#clippath0);" transform="matrix(1, 0, 0, -1, -113.3638, 392.084991)" bx:origin="6.530876 21">
      <g transform="translate(131.3638 352.085)">
        <path d="M 0 0 L -2 -2" style="fill: none; stroke: rgb(188, 192, 196); stroke-opacity: 1; stroke-miterlimit: 0; stroke-linecap: butt; stroke-linejoin: miter; stroke-width: 2px; stroke-dashoffset: 0px;"/>
      </g>
    </g>
    <g style="clip-path: url(#clippath0);" transform="matrix(1, 0, 0, -1, -113.3638, 392.084991)" bx:origin="6.530876 23.5">
      <g transform="translate(129.3638 347.085)">
        <path d="M 0 0 L 2 -2" style="fill: none; stroke: rgb(188, 192, 196); stroke-opacity: 1; stroke-miterlimit: 0; stroke-linecap: butt; stroke-linejoin: miter; stroke-width: 2px; stroke-dashoffset: 0px;"/>
      </g>
    </g>
    <g style="clip-path: url(#clippath0);" transform="matrix(1, 0, 0, -1, -113.3638, 392.084991)" bx:origin="9.030876 21">
      <g transform="translate(124.3638 352.085)">
        <path d="M 0 0 L 2 -2" style="fill: none; stroke: rgb(188, 192, 196); stroke-opacity: 1; stroke-miterlimit: 0; stroke-linecap: butt; stroke-linejoin: miter; stroke-width: 2px; stroke-dashoffset: 0px;"/>
      </g>
    </g>
    <g style="clip-path: url(#clippath0);" transform="matrix(1, 0, 0, -1, -113.3638, 392.084991)" bx:origin="0 25.5">
      <g transform="translate(116.3638 343.085)">
        <path d="M 0 0 L 0 -2" style="fill: none; stroke: rgb(188, 192, 196); stroke-opacity: 1; stroke-miterlimit: 0; stroke-linecap: butt; stroke-linejoin: miter; stroke-width: 2px; stroke-dashoffset: 0px;"/>
      </g>
    </g>
    <g style="clip-path: url(#clippath0);" transform="matrix(1, 0, 0, -1, -113.3638, 392.084991)" bx:origin="0 27.5">
      <g transform="translate(116.3638 339.085)">
        <path d="M 0 0 L 0 -2" style="fill: none; stroke: rgb(188, 192, 196); stroke-opacity: 1; stroke-miterlimit: 0; stroke-linecap: butt; stroke-linejoin: miter; stroke-width: 2px; stroke-dashoffset: 0px;"/>
      </g>
    </g>
    <g style="clip-path: url(#clippath0);" transform="matrix(1, 0, 0, -1, -113.3638, 392.084991)" bx:origin="14.530876 0">
      <g transform="translate(115.3638 340.085)">
        <path d="M 0 0 L -2 0" style="fill: none; stroke: rgb(188, 192, 196); stroke-opacity: 1; stroke-miterlimit: 0; stroke-linecap: butt; stroke-linejoin: miter; stroke-width: 2px; stroke-dashoffset: 0px;"/>
      </g>
    </g>
    <g style="clip-path: url(#clippath0);" transform="matrix(1, 0, 0, -1, -113.3638, 392.084991)" bx:origin="12.530876 0">
      <g transform="translate(119.3638 340.085)">
        <path d="M 0 0 L -2 0" style="fill: none; stroke: rgb(188, 192, 196); stroke-opacity: 1; stroke-miterlimit: 0; stroke-linecap: butt; stroke-linejoin: miter; stroke-width: 2px; stroke-dashoffset: 0px;"/>
      </g>
    </g>
    <g style="clip-path: url(#clippath0);" transform="matrix(1, 0, 0, -1, -113.3638, 392.084991)" bx:origin="0.628855 3.395326">
      <g transform="translate(144.9159 353.5492)">
        <path d="M 0 0 L -12.029 -12.029 C -12.76 -12.76 -12.72 -13.986 -11.939 -14.767 L -11.232 -15.475 C -10.451 -16.256 -9.225 -16.296 -8.493 -15.564 L 3.448 -3.623 Z" style="fill: rgb(163, 212, 255); fill-opacity: 1;"/>
      </g>
    </g>
    <g style="clip-path: url(#clippath0);" transform="matrix(1, 0, 0, -1, -113.3638, 392.084991)" bx:origin="0.628816 3.395326">
      <g transform="translate(144.9159 353.5492)">
        <path d="M 0 0 L -12.029 -12.029 C -12.76 -12.76 -12.72 -13.986 -11.939 -14.767 L -11.232 -15.475 C -10.451 -16.256 -9.225 -16.296 -8.493 -15.564 L 3.449 -3.623" style="fill: none; stroke: rgb(42, 80, 130); stroke-opacity: 1; stroke-miterlimit: 0; stroke-linecap: butt; stroke-linejoin: miter; stroke-width: 2px; stroke-dashoffset: 0px;"/>
      </g>
    </g>
    <g style="clip-path: url(#clippath0);" transform="matrix(1, 0, 0, -1, -113.3638, 392.084991)" bx:origin="-0.002129 1.551724">
      <g transform="translate(142.4873 361.585)">
        <path d="M 0 0 C 0 -8.008 6.492 -14.5 14.5 -14.5 C 22.508 -14.5 29 -8.008 29 0 C 29 8.008 22.508 14.5 14.5 14.5 C 6.492 14.5 0 8.008 0 0" style="fill: rgb(255, 255, 255); fill-opacity: 1;"/>
      </g>
    </g>
    <g style="clip-path: url(#clippath0);" transform="matrix(1, 0, 0, -1, -113.3638, 392.084991)" bx:origin="-0.002129 1.551724">
      <g transform="translate(142.4873 361.585)">
        <path d="M 0 0 C 0 -8.008 6.492 -14.5 14.5 -14.5 C 22.508 -14.5 29 -8.008 29 0 C 29 8.008 22.508 14.5 14.5 14.5 C 6.492 14.5 0 8.008 0 0 Z" style="fill: none; stroke: rgb(42, 80, 130); stroke-opacity: 1; stroke-miterlimit: 0; stroke-linecap: butt; stroke-linejoin: miter; stroke-width: 2px; stroke-dashoffset: 0px;"/>
      </g>
    </g>
    <g style="clip-path: url(#clippath0);" transform="matrix(1, 0, 0, -1, -113.3638, 392.084991)" bx:origin="0 9">
      <g transform="translate(157.3638 360.085)">
        <path d="M 0 0 L 0 -4" style="fill: none; stroke: rgb(42, 80, 130); stroke-opacity: 1; stroke-miterlimit: 0; stroke-linecap: round; stroke-linejoin: miter; stroke-width: 2px; stroke-dashoffset: 0px;"/>
      </g>
    </g>
    <g style="clip-path: url(#clippath0);" transform="matrix(1, 0, 0, -1, -113.3638, 392.084991)" bx:origin="0 7.2">
      <g transform="translate(165.3638 361.085)">
        <path d="M 0 0 L 0 -5" style="fill: none; stroke: rgb(42, 80, 130); stroke-opacity: 1; stroke-miterlimit: 0; stroke-linecap: round; stroke-linejoin: miter; stroke-width: 2px; stroke-dashoffset: 0px;"/>
      </g>
    </g>
    <g style="clip-path: url(#clippath0);" transform="matrix(1, 0, 0, -1, -113.3638, 392.084991)" bx:origin="0 3.272727">
      <g transform="translate(161.3638 367.085)">
        <path d="M 0 0 L 0 -11" style="fill: none; stroke: rgb(42, 80, 130); stroke-opacity: 1; stroke-miterlimit: 0; stroke-linecap: round; stroke-linejoin: miter; stroke-width: 2px; stroke-dashoffset: 0px;"/>
      </g>
    </g>
    <g style="clip-path: url(#clippath0);" transform="matrix(1, 0, 0, -1, -113.3638, 392.084991)" bx:origin="0 3.272727">
      <g transform="translate(153.3638 367.085)">
        <path d="M 0 0 L 0 -11" style="fill: none; stroke: rgb(42, 80, 130); stroke-opacity: 1; stroke-miterlimit: 0; stroke-linecap: round; stroke-linejoin: miter; stroke-width: 2px; stroke-dashoffset: 0px;"/>
      </g>
    </g>
    <g style="clip-path: url(#clippath0);" transform="matrix(1, 0, 0, -1, -113.3638, 392.084991)" bx:origin="0 4.5">
      <g transform="translate(149.3638 364.085)">
        <path d="M 0 0 L 0 -8" style="fill: none; stroke: rgb(42, 80, 130); stroke-opacity: 1; stroke-miterlimit: 0; stroke-linecap: round; stroke-linejoin: miter; stroke-width: 2px; stroke-dashoffset: 0px;"/>
      </g>
    </g>
  </g>
</svg>